<svg width="50" height="44" viewBox="0 0 50 44" fill="none" xmlns="http://www.w3.org/2000/svg">
<path d="M24.875 43.8125C22.875 42.4375 20.7192 41.375 18.4075 40.625C16.0942 39.875 13.7083 39.5 11.25 39.5C9.95833 39.5 8.6875 39.6042 7.4375 39.8125C6.1875 40.0208 4.95833 40.375 3.75 40.875C2.83333 41.25 1.97917 41.1567 1.1875 40.595C0.395833 40.0317 0 39.25 0 38.25V14.1875C0 13.5625 0.166667 13 0.5 12.5C0.833333 12 1.29167 11.6458 1.875 11.4375C3.33333 10.8125 4.85417 10.3333 6.4375 10C8.02083 9.66667 9.625 9.5 11.25 9.5C13.7083 9.5 16.0833 9.875 18.375 10.625C20.6667 11.375 22.875 12.375 25 13.625V40.8125C27.0833 39.4792 29.3017 38.5108 31.655 37.9075C34.01 37.3025 36.375 37 38.75 37C40.125 37 41.375 37.0725 42.5 37.2175C43.625 37.3642 44.8125 37.625 46.0625 38C46.3958 38.125 46.7183 38.1458 47.03 38.0625C47.3433 37.9792 47.5 37.7083 47.5 37.25V11.125C47.75 11.1667 47.9792 11.2292 48.1875 11.3125C48.3958 11.3958 48.6042 11.5 48.8125 11.625C49.2292 11.8333 49.5317 12.135 49.72 12.53C49.9067 12.9267 50 13.3542 50 13.8125V38.125C50 39.125 49.5733 39.8958 48.72 40.4375C47.865 40.9792 46.9375 41.0833 45.9375 40.75C44.8125 40.3333 43.6458 40.0208 42.4375 39.8125C41.2292 39.6042 40 39.5 38.75 39.5C36.25 39.5 33.8125 39.8542 31.4375 40.5625C29.0625 41.2708 26.875 42.3542 24.875 43.8125ZM30 34.5V13.25L42.5 0.75V23.25L30 34.5ZM22.5 39.625V15.125C20.75 14.1667 18.9375 13.4067 17.0625 12.845C15.1875 12.2817 13.25 12 11.25 12C9.70833 12 8.28083 12.135 6.9675 12.405C5.65583 12.6767 4.47917 13.0208 3.4375 13.4375C3.14583 13.5625 2.91667 13.7083 2.75 13.875C2.58333 14.0417 2.5 14.25 2.5 14.5V37.375C2.5 37.8333 2.65667 38.0933 2.97 38.155C3.28167 38.2183 3.60417 38.1875 3.9375 38.0625C4.9375 37.7292 6.03167 37.4692 7.22 37.2825C8.40667 37.0942 9.75 37 11.25 37C13.5 37 15.6042 37.26 17.5625 37.78C19.5208 38.3017 21.1667 38.9167 22.5 39.625Z" fill="#F9C972"/>
</svg>
