<svg width="40" height="40" viewBox="0 0 40 40" fill="none" xmlns="http://www.w3.org/2000/svg">
<path d="M16.5 28.75L32.5 12.75L30.75 11L16.5 25.25L9.375 18.125L7.625 19.875L16.5 28.75ZM4.0625 40C2.89583 40 1.9275 39.615 1.1575 38.845C0.385833 38.0733 0 37.1042 0 35.9375V4.0625C0 2.89583 0.385833 1.9275 1.1575 1.1575C1.9275 0.385833 2.89583 0 4.0625 0H35.9375C37.1042 0 38.0733 0.385833 38.845 1.1575C39.615 1.9275 40 2.89583 40 4.0625V35.9375C40 37.1042 39.615 38.0733 38.845 38.845C38.0733 39.615 37.1042 40 35.9375 40H4.0625ZM4.0625 37.5H35.9375C36.3542 37.5 36.7183 37.3433 37.03 37.03C37.3433 36.7183 37.5 36.3542 37.5 35.9375V4.0625C37.5 3.64583 37.3433 3.28167 37.03 2.97C36.7183 2.65667 36.3542 2.5 35.9375 2.5H4.0625C3.64583 2.5 3.28167 2.65667 2.97 2.97C2.65667 3.28167 2.5 3.64583 2.5 4.0625V35.9375C2.5 36.3542 2.65667 36.7183 2.97 37.03C3.28167 37.3433 3.64583 37.5 4.0625 37.5Z" fill="#F9C972"/>
</svg>
