<svg width="46" height="44" viewBox="0 0 46 44" fill="none" xmlns="http://www.w3.org/2000/svg">
<path d="M9.25 26.75H36.75V24.25H9.25V26.75ZM9.25 19.25H36.75V16.75H9.25V19.25ZM9.25 11.75H36.75V9.25H9.25V11.75ZM45.5 43.1875L37.8125 35.5H4.5625C3.39583 35.5 2.4275 35.115 1.6575 34.345C0.885833 33.5733 0.5 32.6042 0.5 31.4375V4.5625C0.5 3.39583 0.885833 2.42667 1.6575 1.655C2.4275 0.885 3.39583 0.5 4.5625 0.5H41.4375C42.6042 0.5 43.5733 0.885 44.345 1.655C45.115 2.42667 45.5 3.39583 45.5 4.5625V43.1875ZM3 4.5625V33H38.875L43 37.125V4.5625C43 4.10417 42.8542 3.72917 42.5625 3.4375C42.2708 3.14583 41.8958 3 41.4375 3H4.5625C4.10417 3 3.72917 3.14583 3.4375 3.4375C3.14583 3.72917 3 4.10417 3 4.5625ZM3 4.5625V37.125V3V4.5625Z" fill="#F9C972"/>
</svg>
